<svg id="Layer_1" data-name="Layer 1" xmlns="http://www.w3.org/2000/svg" xmlns:xlink="http://www.w3.org/1999/xlink" viewBox="0 0 389.03 300.07" width="406" height="306" class="illustration styles_illustrationTablet__1DWOa"><defs><linearGradient id="linear-gradient" x1="180.1" y1="101.99" x2="276.89" y2="440.74" gradientUnits="userSpaceOnUse"><stop offset="0.01"></stop><stop offset="0.08" stop-opacity="0.69"></stop><stop offset="0.21" stop-opacity="0.32"></stop><stop offset="1" stop-opacity="0"></stop></linearGradient><linearGradient id="linear-gradient-2" x1="289.81" y1="192.55" x2="304.66" y2="295.94" xlink:href="#linear-gradient"></linearGradient><linearGradient id="linear-gradient-3" x1="137.2" y1="201.5" x2="115.57" y2="327.25" xlink:href="#linear-gradient"></linearGradient><linearGradient id="linear-gradient-4" x1="30.57" y1="121.07" x2="273.54" y2="121.07" gradientUnits="userSpaceOnUse"><stop offset="0.01"></stop><stop offset="0.13" stop-opacity="0.69"></stop><stop offset="0.25" stop-opacity="0.32"></stop><stop offset="1" stop-opacity="0"></stop></linearGradient><linearGradient id="linear-gradient-5" x1="72.31" y1="30.15" x2="577.15" y2="592.17" xlink:href="#linear-gradient-4"></linearGradient><linearGradient id="linear-gradient-6" x1="116.94" y1="128.34" x2="705.36" y2="589.18" xlink:href="#linear-gradient"></linearGradient><linearGradient id="linear-gradient-7" x1="135.17" y1="105.07" x2="723.59" y2="565.91" xlink:href="#linear-gradient"></linearGradient><linearGradient id="linear-gradient-8" x1="230.84" y1="131.79" x2="219.13" y2="137.36" gradientUnits="userSpaceOnUse"><stop offset="0" stop-color="#606060"></stop><stop offset="1" stop-color="#3b2c33"></stop></linearGradient><linearGradient id="linear-gradient-9" x1="2712.89" y1="51.87" x2="2716.74" y2="131.02" gradientTransform="matrix(-1, 0.06, 0.06, 1, 2914.05, -89.19)" xlink:href="#linear-gradient-8"></linearGradient><linearGradient id="linear-gradient-10" x1="2734.71" y1="46.71" x2="2691.78" y2="73.98" gradientTransform="matrix(-1, 0.06, 0.06, 1, 2914.05, -89.19)" xlink:href="#linear-gradient-8"></linearGradient><linearGradient id="linear-gradient-11" x1="61.97" y1="133.08" x2="72.72" y2="137.11" gradientTransform="translate(131.69)" gradientUnits="userSpaceOnUse"><stop offset="0" stop-color="#fff"></stop><stop offset="0.37" stop-color="#fdfdfd"></stop><stop offset="0.51" stop-color="#f6f6f6"></stop><stop offset="0.6" stop-color="#ebebeb"></stop><stop offset="0.68" stop-color="#dadada"></stop><stop offset="0.75" stop-color="#c4c4c4"></stop><stop offset="0.8" stop-color="#a8a8a8"></stop><stop offset="0.86" stop-color="#888"></stop><stop offset="0.91" stop-color="#626262"></stop><stop offset="0.95" stop-color="#373737"></stop><stop offset="0.99" stop-color="#090909"></stop><stop offset="1"></stop></linearGradient><linearGradient id="linear-gradient-12" x1="200.31" y1="223.63" x2="196.73" y2="254.62" gradientUnits="userSpaceOnUse"><stop offset="0" stop-color="#00bfa5"></stop><stop offset="1" stop-color="#434141"></stop></linearGradient><linearGradient id="linear-gradient-13" x1="216.47" y1="222.31" x2="212.88" y2="253.3" xlink:href="#linear-gradient-12"></linearGradient><linearGradient id="linear-gradient-14" x1="220.45" y1="109.92" x2="194.58" y2="120.03" gradientUnits="userSpaceOnUse"><stop offset="0" stop-color="#f2ce78"></stop><stop offset="1" stop-color="#fff"></stop></linearGradient><linearGradient id="linear-gradient-15" x1="191.34" y1="136.24" x2="202.35" y2="147.26" xlink:href="#linear-gradient-8"></linearGradient></defs><title>4</title><path d="M316.22,40.84c27.7,25.13,23.21,70.75,44.13,101.74,7.9,11.7,19.26,21,25.54,33.64,6.68,13.43,6.86,29.08,6,44-.75,13.09-2.26,26.39-7.54,38.4-9.64,21.95-31.13,37.11-54.16,43.79s-47.57,5.82-71.36,2.88-47.36-7.92-71.3-9.34c-17.26-1-34.57-.18-51.81,1.12-18.44,1.38-37.23,3.25-55.22-1.05-23.61-5.64-44.08-22-56.58-42.77s-17.34-45.78-15.56-70c1-13.31,4-26.65,10.39-38.33,9.78-17.72,26.62-30.24,43.13-41.94Q80.79,89.62,100,76.65c22.41-15.13,45.36-29.91,70.64-39.49,27.18-10.3,51.33-9.6,79.63-7.94C274.53,30.65,295.7,22.23,316.22,40.84Z" transform="translate(-8.01 -7.46)" fill="#4154F1" opacity="0.18" style="isolation: isolate;"></path><path d="M31,255.75a11.72,11.72,0,0,0,3.93,4.5C50,272,69.55,276.18,88.49,278.76c47.93,6.54,96.54,5.27,144.89,4,12.16-.33,24.48-.67,36.15-4.09,25.22-7.39,44.05-27.89,66.06-42.26,11.35-7.4,23.68-13.24,34.9-20.84s21.56-17.38,26.55-30c-1.23,3.1-36.73,2.89-41.25,3.16-13.8.83-27.61,1.45-41.42,2-27.95,1.16-55.91,2.06-83.82,3.8-48.63,3-103.06,6-148.83,24.28C70.87,223.17,25.67,242.71,31,255.75Z" transform="translate(-8.01 -7.46)" fill="url(#linear-gradient)"></path><path d="M383.07,194.12h0a2.15,2.15,0,0,1-1.3,2.12L215.46,270a13.44,13.44,0,0,1-8,.92l-1.61-.31L70.61,244.74,275.72,174a9.87,9.87,0,0,1,4.94-.37l87.67,16,12.94,2.36A2.16,2.16,0,0,1,383.07,194.12Z" transform="translate(-8.01 -7.46)" fill="#4154F1"></path><path d="M383.07,183.42v10.71l-.14.92a2.07,2.07,0,0,1-1.16,1.2L215.46,270a13.44,13.44,0,0,1-8,.92l-1.61-.31-1.63-11L368.33,189.7Z" transform="translate(-8.01 -7.46)" fill="#fff"></path><path d="M383.4,183.42v10.71l-.14.92a2.1,2.1,0,0,1-1.16,1.2L215.79,270a13.45,13.45,0,0,1-8,.92l-1.61-.31-1.63-11L368.65,189.7Z" transform="translate(-8.01 -7.46)" fill="url(#linear-gradient-2)"></path><polygon points="59.51 225.59 62.6 237.27 199.44 263.41 197.27 248.42 59.51 225.59" fill="#fff"></polygon><polygon points="59.84 225.59 62.92 237.27 199.77 263.41 197.59 248.42 59.84 225.59" fill="url(#linear-gradient-3)"></polygon><path d="M55.18,224.85,30.74,79.72A11.77,11.77,0,0,1,38.9,66.51L230,8a11.77,11.77,0,0,1,15,8.88l28.28,136.81a11.77,11.77,0,0,1-7.71,13.52L70.6,234A11.76,11.76,0,0,1,55.18,224.85Z" transform="translate(-8.01 -7.46)" fill="#4154F1"></path><path d="M55.18,224.85,30.74,79.72A11.77,11.77,0,0,1,38.9,66.51L230,8a11.77,11.77,0,0,1,15,8.88l28.28,136.81a11.77,11.77,0,0,1-7.71,13.52L70.6,234A11.76,11.76,0,0,1,55.18,224.85Z" transform="translate(-8.01 -7.46)" fill="#fff"></path><path d="M55.18,224.85,30.74,79.72A11.77,11.77,0,0,1,38.9,66.51L230,8a11.77,11.77,0,0,1,15,8.88l28.28,136.81a11.77,11.77,0,0,1-7.71,13.52L70.6,234A11.76,11.76,0,0,1,55.18,224.85Z" transform="translate(-8.01 -7.46)" fill="url(#linear-gradient-4)"></path><path d="M59,224.85,34.59,79.72a11.76,11.76,0,0,1,8.16-13.21L233.89,8a11.77,11.77,0,0,1,15,8.88l28.28,136.81a11.77,11.77,0,0,1-7.71,13.52L74.45,234A11.76,11.76,0,0,1,59,224.85Z" transform="translate(-8.01 -7.46)" fill="#fff"></path><path d="M59,224.85,34.59,79.72a11.76,11.76,0,0,1,8.16-13.21L233.89,8a11.77,11.77,0,0,1,15,8.88l28.28,136.81a11.77,11.77,0,0,1-7.71,13.52L74.45,234A11.76,11.76,0,0,1,59,224.85Z" transform="translate(-8.01 -7.46)" fill="url(#linear-gradient-5)"></path><path d="M63.38,216.52,40.29,80.33A11,11,0,0,1,48,67.94L228.58,13a11.11,11.11,0,0,1,14.14,8.32l26.72,128.37a11.05,11.05,0,0,1-7.28,12.69L78,225.13A11.13,11.13,0,0,1,63.38,216.52Z" transform="translate(-8.01 -7.46)" fill="#fff"></path><path d="M188.79,171.87l-4.1-4.19c18.74-18.33,27.87-43.8,27.16-75.7a162.33,162.33,0,0,0-6.85-43l5.55-1.87a164.7,164.7,0,0,1,7.16,44.61C218.48,124.87,208.49,152.6,188.79,171.87Z" transform="translate(-8.01 -7.46)" fill="#4154F1"></path><path d="M70.6,234l136.85,26.14a13.59,13.59,0,0,0,8-.92l166.31-73.71a2.21,2.21,0,0,0-.5-4.19L280.66,163a9.75,9.75,0,0,0-4.94.38Z" transform="translate(-8.01 -7.46)" fill="#fff"></path><polygon points="88.47 223.21 270.32 159.79 314.68 166.05 150.06 233.11 88.47 223.21" fill="#4154F1"></polygon><polygon points="201.57 214.85 277.97 183.25 321.75 193.43 247.59 227.21 201.57 214.85" fill="#4154F1"></polygon><polygon points="88.47 223.21 270.32 159.79 314.68 166.05 150.06 233.11 88.47 223.21" fill="url(#linear-gradient-6)"></polygon><polygon points="201.57 214.85 277.97 183.25 321.75 193.43 247.59 227.21 201.57 214.85" fill="url(#linear-gradient-7)"></polygon><path d="M114.9,12.54c-41.29,0-74.76,39.89-74.76,89.09s33.47,89.08,74.76,89.08,74.78-39.88,74.78-89.08S156.2,12.54,114.9,12.54Zm0,151.46c-17.9,0-33.71-10.71-43.14-27.06l-13.6,3.73S40.57,80.73,77.14,48l5.57,4.43c8.88-8.26,20.05-13.19,32.19-13.19,28.92,0,52.36,27.93,52.36,62.39S143.82,164,114.9,164Z" transform="translate(-8.01 -7.46)" fill="#4154F1" opacity="0.38" style="isolation: isolate;"></path><path d="M140.47,26.1l8.65-13.56S178.75,32,186.74,53.41L173,61.3S159.54,38.2,140.47,26.1Z" transform="translate(-8.01 -7.46)" fill="#4154F1" opacity="0.54" style="isolation: isolate;"></path><path d="M72,101.63a57.22,57.22,0,0,0,9.82,32.56l-10,2.75-13.6,3.73S40.57,80.73,77.14,48l5.57,4.43,8.39,6.64C79.58,68.23,72,83.87,72,101.63Z" transform="translate(-8.01 -7.46)" fill="#4154F1" opacity="0.54" style="isolation: isolate;"></path><path d="M342.66,101.51a12.33,12.33,0,0,1-24,4.1,12.18,12.18,0,0,1-.71-4.1,12.34,12.34,0,1,1,24.68,0Z" transform="translate(-8.01 -7.46)" fill="#4154F1" opacity="0.82" style="isolation: isolate;"></path><path d="M338.94,96.15a12.33,12.33,0,0,1-20.25,9.46,12.18,12.18,0,0,1-.71-4.1A12.35,12.35,0,0,1,338.24,92,12.19,12.19,0,0,1,338.94,96.15Z" transform="translate(-8.01 -7.46)" fill="#fff" opacity="0.55" style="isolation: isolate;"></path><path d="M311.77,117.89a6.17,6.17,0,0,1-12,2,6,6,0,0,1-.35-2,6.17,6.17,0,0,1,12.34,0Z" transform="translate(-8.01 -7.46)" fill="#4154F1" opacity="0.82" style="isolation: isolate;"></path><path d="M309.91,115.22a6.16,6.16,0,0,1-6.17,6.16,6.07,6.07,0,0,1-4-1.44,6,6,0,0,1-.35-2,6.17,6.17,0,0,1,10.13-4.73A6.06,6.06,0,0,1,309.91,115.22Z" transform="translate(-8.01 -7.46)" fill="#fff" opacity="0.55" style="isolation: isolate;"></path><path d="M308.43,79.65a6.34,6.34,0,0,1-12.32,2.11,6.15,6.15,0,0,1-.36-2.11,6.34,6.34,0,0,1,6.34-6.34,6.34,6.34,0,0,1,6.34,6.34Z" transform="translate(-8.01 -7.46)" fill="#4154F1" opacity="0.82" style="isolation: isolate;"></path><path d="M306.52,76.9a6.34,6.34,0,0,1-10.41,4.86,6.15,6.15,0,0,1-.36-2.11,6.34,6.34,0,0,1,6.34-6.34,6.27,6.27,0,0,1,4.07,1.48A6.15,6.15,0,0,1,306.52,76.9Z" transform="translate(-8.01 -7.46)" fill="#fff" opacity="0.55" style="isolation: isolate;"></path><g opacity="0.82" style="isolation: isolate;"><polygon points="296.62 108.3 284.93 88.24 297.96 82.66 294.7 76.73 295.56 76.26 299.33 83.14 286.33 88.71 297.46 107.81 296.62 108.3" fill="#4154F1"></polygon></g><path d="M121.79,110.6a7.8,7.8,0,1,1,2.16-6.23A7.79,7.79,0,0,1,121.79,110.6Z" transform="translate(-8.01 -7.46)" fill="#4154F1" opacity="0.82" style="isolation: isolate;"></path><path d="M122.46,106.54a7.78,7.78,0,0,1-13.32-4.64A7.78,7.78,0,0,1,124,104.37,7.51,7.51,0,0,1,122.46,106.54Z" transform="translate(-8.01 -7.46)" fill="#fff" opacity="0.55" style="isolation: isolate;"></path><path d="M100.61,104.41a3.9,3.9,0,0,1-6.33-4.35A3.75,3.75,0,0,1,95,99a3.89,3.89,0,0,1,5.58,5.43Z" transform="translate(-8.01 -7.46)" fill="#4154F1" opacity="0.82" style="isolation: isolate;"></path><path d="M100.94,102.38a3.89,3.89,0,0,1-6.66-2.32A3.75,3.75,0,0,1,95,99a3.9,3.9,0,0,1,6.66,2.32A3.89,3.89,0,0,1,100.94,102.38Z" transform="translate(-8.01 -7.46)" fill="#fff" opacity="0.55" style="isolation: isolate;"></path><path d="M115.93,85.65a4,4,0,0,1-6.5-4.47,3.72,3.72,0,0,1,.76-1.11,4,4,0,0,1,5.66-.07,4,4,0,0,1,.08,5.65Z" transform="translate(-8.01 -7.46)" fill="#4154F1" opacity="0.82" style="isolation: isolate;"></path><path d="M116.27,83.57a4,4,0,0,1-5.66.08,3.94,3.94,0,0,1-1.18-2.47,3.72,3.72,0,0,1,.76-1.11,4,4,0,0,1,5.66-.07A4,4,0,0,1,117,82.45,4,4,0,0,1,116.27,83.57Z" transform="translate(-8.01 -7.46)" fill="#fff" opacity="0.55" style="isolation: isolate;"></path><polyline points="90.61 92.91 94.06 79.04 102.4 82.25 103.63 77.81" fill="none" fill="#4154F1" stroke-miterlimit="10" stroke-width="0.62" opacity="0.82" style="isolation: isolate;"></polyline><path d="M113.24,207.75q-3,0-6.12-.29c-17.43-1.6-33.12-10-42-22.34l4.77-3.41c7.88,11,22,18.47,37.76,19.92a58,58,0,0,0,46.21-16.32l4.07,4.22A63.89,63.89,0,0,1,113.24,207.75Z" transform="translate(-8.01 -7.46)" fill="#4154F1"></path><path d="M219.28,120.63c2.6-.47,6.2,3.15,6.86,5.69l3.11,11.92c.61,2.37,2.48,10.26-.89,11.49a2.87,2.87,0,0,1-2.7-.55c-1.62-1.28-2.45-4-3.42-5.84a55.77,55.77,0,0,1-2.35-5.58l-3.34-8.32C215.37,126.49,216.13,121.19,219.28,120.63Z" transform="translate(-8.01 -7.46)" fill="url(#linear-gradient-8)"></path><path d="M210.16,122.44a9.84,9.84,0,0,0,1.84-1,3,3,0,0,0,1.43-2.1c0-.73,0-1.45-.05-2.18s0-1.5-.08-2.25a5.61,5.61,0,0,0-.12-1.22L207.1,115l.16,2.8c.07,1.24-.11,2.73.81,3.68l.08.08a7.37,7.37,0,0,0,1.42,1,.44.44,0,0,0,.19.07.43.43,0,0,0,.24-.06Z" transform="translate(-8.01 -7.46)" fill="#ffaea3"></path><path d="M206.41,117.57a1.09,1.09,0,0,0,.32.17c1,.35,2.49-.4,3.33-.91a12.31,12.31,0,0,0,3.87-4,3.52,3.52,0,0,0,3-2.32c.45-1.29.31-3.07-.74-3.26a1.77,1.77,0,0,0-1.07.24c-.32-3.51-2.18-7.5-4.5-8.51a2.88,2.88,0,0,0-.67-.21,6.13,6.13,0,0,0-4.45.92c-1.27.81-1.75,2.4-2.24,3.73a27.51,27.51,0,0,1-2.53,5.17,1.07,1.07,0,0,0-.19.42c-.05.36.26.66.5,1a6.07,6.07,0,0,1,1.05,3.47,2.61,2.61,0,0,0,.48,1.52c.56.63,1.57.55,2.34.9S205.85,117.13,206.41,117.57Z" transform="translate(-8.01 -7.46)" fill="#ffaea3"></path><path d="M210.31,108.57" transform="translate(-8.01 -7.46)" fill="#2c2341"></path><path d="M204.31,238s2.32,5.46,1.39,6.58-4.93,1.08-4.93,1.08-5,2.39-8.78.4,0-4,2.25-3.93,4.53-3.16,5.76-4.65Z" transform="translate(-8.01 -7.46)" fill="#ffaea3"></path><polygon points="191.14 194.15 192 229.96 196.71 231.5 201.07 195.62 191.14 194.15" fill="#ffaea3"></polygon><polygon points="203.94 194.15 207.81 229.33 212.52 230.86 213.11 193.95 203.94 194.15" fill="#ffaea3"></polygon><path d="M220.2,236.87s2.32,5.46,1.39,6.58-4.93,1.08-4.93,1.08-5,2.39-8.78.4,0-4,2.25-3.93,4.53-3.16,5.77-4.65Z" transform="translate(-8.01 -7.46)" fill="#ffaea3"></path><path d="M196.39,186.49a140.69,140.69,0,0,0-.16,14.38,4,4,0,0,0,.38,1.81c.6,1,2,1.35,3.16,1.5a74,74,0,0,0,16.23.31,13.44,13.44,0,0,0,4.48-1c2.94-1.37,2.85-3.78,3.29-6.61.58-3.71,1.26-7.42,1.65-11.16,1-9.27-1.76-16.18-4.42-24.7-.44-1.43-1.07-3.31-1.81-5.08a51,51,0,0,1-3.05-8c-.09-.13-.17-.24-.24-.36l-14.69,1.57a.16.16,0,0,1,0,0c-1.38,4.17-3.46,9.15-3.51,13.59C197.61,170.7,196.82,178.59,196.39,186.49Z" transform="translate(-8.01 -7.46)" fill="url(#linear-gradient-9)"></path><path d="M197.29,164.83c-.29.81-.64,1.61-.86,2.43,1.5.91,2.7,1.8,4.54.83a8.17,8.17,0,0,0,3-3.31c1.41,1.81,2.45,3.54,4.64,4.44a12.58,12.58,0,0,0,5.76.82,28.09,28.09,0,0,0,8.3-2.29,1.15,1.15,0,0,0,.58-.4,1.11,1.11,0,0,0,0-.84c-2-8.15-.75-16.68.25-25a46.62,46.62,0,0,0,.33-12.48,24.46,24.46,0,0,0-1.22-4.76c-.4-1.11-.91-3-1.86-3.77a11.72,11.72,0,0,0-3.3-1.19,28.71,28.71,0,0,0-4.3-1.16l-4.92.63c-2.73.35-5.56.72-7.4,3.06a14.33,14.33,0,0,0-2.15,4.87c-1.08,3.57-2.16,7.35-1.29,11a53.91,53.91,0,0,0,2,5.31,24.16,24.16,0,0,1,.65,12.35A60.35,60.35,0,0,1,197.29,164.83Z" transform="translate(-8.01 -7.46)" fill="url(#linear-gradient-10)"></path><path d="M187.1,143.76a111.49,111.49,0,0,1-12.23-1.19,17,17,0,0,1-3.46-.8,15.84,15.84,0,0,1-2.57-1.37,4.59,4.59,0,0,0-2.48-1,11.57,11.57,0,0,0,1.07,1.95,4.17,4.17,0,0,1-3.06-.69c-.92-.54-1.75-1.25-2.72-1.71a.74.74,0,0,0-.59-.09.69.69,0,0,0-.31.59,3.7,3.7,0,0,0,.48,1.85,10.29,10.29,0,0,0,3.64,4.15,7.4,7.4,0,0,0,2.41,1.05c1.16.21,2.44-.13,3.62,0a14.85,14.85,0,0,1,3.14.77,59.62,59.62,0,0,0,12.28,2.83c1.89.18,10.25,1,10.12-2.53a1,1,0,0,0-.36-.61,23.87,23.87,0,0,0-2.14-2.24,5.52,5.52,0,0,0-3.32-.9C189.45,143.83,188.28,143.8,187.1,143.76Z" transform="translate(-8.01 -7.46)" fill="#ffaea3"></path><path d="M200.29,122.79a1.83,1.83,0,0,0-.54.6,17.37,17.37,0,0,0-1.65,3.35c-.82,2-1.51,4.11-2.15,6.2-.39,1.26-.49,2.61-.85,3.89a23.87,23.87,0,0,1-1.47,3.85,13.24,13.24,0,0,0-.91,2.08,3.32,3.32,0,0,0,0,2.22,4.65,4.65,0,0,0,1.27,1.56c.71.65,2,1.84,2.9,1.11a5.87,5.87,0,0,0,1.26-1.46,28.09,28.09,0,0,0,2.5-4.92,91.61,91.61,0,0,0,3.2-9L204,132S205.75,119.86,200.29,122.79Z" transform="translate(-8.01 -7.46)" fill="url(#linear-gradient-11)"></path><path d="M203.38,242.45a19,19,0,0,1-3.75.59,2.3,2.3,0,0,1-2-.67c-.21-.3-.29-.7-.52-1s-.74-.43-.94-.12.09.74,0,1.07-.69.38-1.05.2a4.42,4.42,0,0,0-1-.59,2,2,0,0,0-1,.1,7.54,7.54,0,0,0-2.22.89,2.48,2.48,0,0,0-1.18,2,1.34,1.34,0,0,0,.14.62,1.64,1.64,0,0,0,.51.54,5.39,5.39,0,0,0,2.26.74,20.87,20.87,0,0,0,7.95-.37,2.21,2.21,0,0,1,.62-.09,2.54,2.54,0,0,1,.71.22,3.89,3.89,0,0,0,2.79,0,2.43,2.43,0,0,0,.82-.52,2.6,2.6,0,0,0,.62-1.67c0-.59,0-2-.52-2.45S203.93,242.32,203.38,242.45Z" transform="translate(-8.01 -7.46)" fill="url(#linear-gradient-12)"></path><path d="M219.54,241.13a20,20,0,0,1-3.76.6,2.28,2.28,0,0,1-2-.68c-.22-.3-.29-.69-.52-1s-.75-.43-1-.12.09.74,0,1.08-.69.38-1,.19a4.49,4.49,0,0,0-1-.59,2.07,2.07,0,0,0-.95.1,7.46,7.46,0,0,0-2.23.9,2.49,2.49,0,0,0-1.18,2,1.34,1.34,0,0,0,.66,1.16,5.08,5.08,0,0,0,2.26.74,20.87,20.87,0,0,0,7.95-.37,2.13,2.13,0,0,1,.61-.08,2.69,2.69,0,0,1,.72.21,3.84,3.84,0,0,0,2.79,0,2.17,2.17,0,0,0,.81-.52,2.5,2.5,0,0,0,.62-1.67c0-.59,0-2-.51-2.44S220.08,241,219.54,241.13Z" transform="translate(-8.01 -7.46)" fill="url(#linear-gradient-13)"></path><path d="M202.57,100.3a5.29,5.29,0,0,0,2.17,4.11,3.23,3.23,0,0,1,1,.94,2.6,2.6,0,0,1,.2,1l.38,7.57a15.68,15.68,0,0,0,.7,4.57,5.25,5.25,0,0,0,3.06,3.28,1.73,1.73,0,0,1,.69.31,1.51,1.51,0,0,1,.32.66,15.09,15.09,0,0,1,.62,3.58c.07,2.59-.9,5.36.28,7.66a6.14,6.14,0,0,0,2.07-.6l7.42-3.14a11.27,11.27,0,0,0,2.86-1.54,9.59,9.59,0,0,0,2.56-3.73,9.9,9.9,0,0,0,1-5.68,11.83,11.83,0,0,0-1.76-3.92,22.43,22.43,0,0,0-2.09-3c-1-1.15-2.25-2.15-2.79-3.57-1-2.57.66-5.66-.52-8.15-.89-1.87-3.05-2.7-4.66-4-.54-.44-1-.94-1.55-1.39a7.41,7.41,0,0,0-5.15-1.78,5.65,5.65,0,0,0-4.27,2.71C204.06,97.58,202.58,98.33,202.57,100.3Z" transform="translate(-8.01 -7.46)" fill="url(#linear-gradient-14)"></path><path d="M202.76,120.59a12,12,0,0,1,2.42,8.22c-.39,5-8,22.32-8,22.32l-20.64-2.57-.67-6.51,14.39.62s6.69-20.2,8.1-21.41S202.76,120.59,202.76,120.59Z" transform="translate(-8.01 -7.46)" fill="url(#linear-gradient-15)"></path></svg>