<svg xmlns="http://www.w3.org/2000/svg" xmlns:xlink="http://www.w3.org/1999/xlink" viewBox="0 0 400 300" width="406" height="306" class="illustration styles_illustrationTablet__1DWOa"><defs><linearGradient id="linear-gradient" x1="260.53" y1="157.62" x2="225.39" y2="200.29" gradientUnits="userSpaceOnUse"><stop offset="0" stop-color="#8c6239"></stop><stop offset="1" stop-color="#fff"></stop></linearGradient><linearGradient id="linear-gradient-2" x1="235.97" y1="169.17" x2="172.15" y2="246.67" xlink:href="#linear-gradient"></linearGradient><linearGradient id="linear-gradient-3" x1="122.24" y1="159.91" x2="87.1" y2="202.58" xlink:href="#linear-gradient"></linearGradient></defs><title>121-130</title><g style="isolation: isolate;"><g id="Layer_2" data-name="Layer 2"><path d="M206.37,274.52l149.75-84a7.16,7.16,0,0,0,.27-12.32L211.22,88.21a7.16,7.16,0,0,0-7.36-.11L45.45,180a7.16,7.16,0,0,0,0,12.38l141.25,82A19.84,19.84,0,0,0,206.37,274.52Z" fill="#787c96"></path><path d="M230.14,176.12c-9.37,5.87-20.69,12.66-30.16,20.5l21.78,15.85,45.76-28.82C262.13,181.08,234.38,180.31,230.14,176.12Z" fill="url(#linear-gradient)" style="mix-blend-mode: multiply;"></path><path d="M143.28,208.88c-9.37,5.87-20.69,12.66-30.16,20.5l72,40.75,76.44-43.07C256.17,224.48,147.51,213.07,143.28,208.88Z" fill="url(#linear-gradient-2)" style="mix-blend-mode: multiply;"></path><path d="M91.85,178.4c-9.37,5.87-20.69,12.66-30.16,20.5l21.78,15.85,45.76-28.82C123.84,183.36,96.09,182.59,91.85,178.4Z" fill="url(#linear-gradient-3)" style="mix-blend-mode: multiply;"></path><polyline points="225.09 247.42 216.41 242.44 218.79 239.95 225.48 244.21" fill="#c65517"></polyline><polyline points="230.6 241 220.5 235.39 216.85 239.46 225.09 244.18" fill="#ea6c0f"></polyline><polygon points="225.09 244.18 230.6 241 230.6 244.18 225.09 247.42 225.09 244.18" fill="#ff7c28"></polygon><polyline points="240.52 238.9 231.84 233.91 234.22 231.42 240.9 235.68" fill="#c65517"></polyline><polyline points="246.03 232.47 235.92 226.86 232.27 230.93 240.52 235.65" fill="#ea6c0f"></polyline><polygon points="240.52 235.65 246.03 232.47 246.03 235.65 240.52 238.9 240.52 235.65" fill="#ff7c28"></polygon><polyline points="256.06 230.3 247.37 225.32 249.75 222.83 256.44 227.09" fill="#c65517"></polyline><polyline points="261.57 223.88 251.46 218.26 247.81 222.33 256.06 227.06" fill="#ea6c0f"></polyline><polygon points="256.06 227.06 261.57 223.88 261.57 227.06 256.06 230.3 256.06 227.06" fill="#ff7c28"></polygon><polyline points="207.51 257.41 198.83 252.43 201.21 249.94 207.9 254.2" fill="#c65517"></polyline><polyline points="213.02 250.99 202.92 245.37 199.26 249.44 207.51 254.17" fill="#ea6c0f"></polyline><polygon points="207.51 254.17 213.02 250.99 213.02 254.17 207.51 257.41 207.51 254.17" fill="#ff7c28"></polygon><polyline points="163.62 246.53 172.3 241.55 169.92 239.06 163.23 243.32" fill="#c65517"></polyline><polyline points="158.11 240.1 168.21 234.49 171.86 238.56 163.62 243.29" fill="#ea6c0f"></polyline><polygon points="163.62 243.29 158.11 240.1 158.11 243.29 163.62 246.53 163.62 243.29" fill="#ff7c28"></polygon><polyline points="148.82 238.17 157.5 233.19 155.12 230.69 148.43 234.96" fill="#c65517"></polyline><polyline points="143.31 231.74 153.41 226.13 157.07 230.2 148.82 234.93" fill="#ea6c0f"></polyline><polygon points="148.82 234.93 143.31 231.74 143.31 234.93 148.82 238.17 148.82 234.93" fill="#ff7c28"></polygon><polyline points="132.63 228.65 141.31 223.66 138.93 221.17 132.25 225.44" fill="#c65517"></polyline><polyline points="127.12 222.22 137.23 216.61 140.88 220.68 132.63 225.4" fill="#ea6c0f"></polyline><polygon points="132.63 225.4 127.12 222.22 127.12 225.4 132.63 228.65 132.63 225.4" fill="#ff7c28"></polygon><polyline points="180.98 256.68 189.66 251.7 187.28 249.21 180.59 253.47" fill="#c65517"></polyline><polyline points="175.47 250.26 185.57 244.64 189.23 248.71 180.98 253.44" fill="#ea6c0f"></polyline><polygon points="180.98 253.44 175.47 250.26 175.47 253.44 180.98 256.68 180.98 253.44" fill="#ff7c28"></polygon><path d="M259.19,217.79v1.85l-65.46,37.05s-67.54-39-67.51-39.18,0-2.05,0-2.05" fill="#4154F1"></path><path d="M259.19,217.79v1.85l-65.46,37.05s-67.54-39-67.51-39.18,0-2.05,0-2.05" opacity="0.25"></path><polygon points="193.54 254.37 126.22 215.45 192.63 178.08 259.19 217.79 193.54 254.37" fill="#4154F1"></polygon><polyline points="213.44 190.83 213.44 193.36 155.81 225.46 144.03 219.01 144.03 216.4" fill="#ea6c0f"></polyline><polygon points="144.03 216.4 155.27 222.89 213.44 190.83 201.44 183.91 144.03 216.4" fill="#ff8522"></polygon><polyline points="214.5 188.05 214.5 190.58 156.86 222.68 145.09 216.23 145.09 213.62" fill="#ea6c0f"></polyline><polygon points="145.09 213.62 156.33 220.11 214.5 188.05 202.5 181.13 145.09 213.62" fill="#ff8522"></polygon><polyline points="228.71 199.31 228.71 201.84 171.07 233.94 159.3 227.49 159.3 224.88" fill="#ea6c0f"></polyline><polygon points="159.3 224.88 170.54 231.37 228.71 199.31 216.71 192.39 159.3 224.88" fill="#ff8522"></polygon><polyline points="229.76 196.53 229.76 199.06 172.13 231.16 160.35 224.71 160.35 222.1" fill="#ea6c0f"></polyline><polygon points="160.35 222.1 171.6 228.59 229.76 196.53 217.77 189.61 160.35 222.1" fill="#ff8522"></polygon><polyline points="242.51 208.38 242.51 210.91 184.88 243.01 173.1 236.56 173.1 233.95" fill="#ea6c0f"></polyline><polygon points="173.1 233.95 184.34 240.44 242.51 208.38 230.52 201.46 173.1 233.95" fill="#ff8522"></polygon><polyline points="242.87 205.31 242.87 207.84 185.24 239.94 173.46 233.49 173.46 230.88" fill="#ea6c0f"></polyline><polygon points="173.46 230.88 184.7 237.37 242.87 205.31 230.87 198.39 173.46 230.88" fill="#ff8522"></polygon><polyline points="215.24 185 215.24 187.53 157.61 219.63 145.83 213.18 145.83 210.57" fill="#ea6c0f"></polyline><polygon points="145.83 210.57 157.07 217.06 215.24 185 203.25 178.08 145.83 210.57" fill="#ff8522"></polygon><polyline points="216.3 182.22 216.3 184.75 158.66 216.85 146.89 210.4 146.89 207.79" fill="#ea6c0f"></polyline><polygon points="146.89 207.79 158.13 214.28 216.3 182.22 204.31 175.3 146.89 207.79" fill="#ff8522"></polygon><polyline points="230.1 193.96 230.1 196.49 172.47 228.59 160.69 222.14 160.69 219.53" fill="#ea6c0f"></polyline><polygon points="160.69 219.53 171.93 226.02 230.1 193.96 218.11 187.04 160.69 219.53" fill="#ff8522"></polygon><polyline points="231.16 191.18 231.16 193.71 173.53 225.81 161.75 219.36 161.75 216.75" fill="#ea6c0f"></polyline><polygon points="161.75 216.75 172.99 223.24 231.16 191.18 219.16 184.26 161.75 216.75" fill="#ff8522"></polygon><polyline points="215.24 182.22 215.24 184.75 157.61 216.85 145.83 210.4 145.83 207.79" fill="#ea6c0f"></polyline><polygon points="145.83 207.79 157.07 214.28 215.24 182.22 203.25 175.3 145.83 207.79" fill="#ff8522"></polygon><polyline points="231.36 191.5 231.36 194.03 173.72 226.13 161.94 219.68 161.94 217.07" fill="#ea6c0f"></polyline><polygon points="161.94 217.07 173.19 223.56 231.36 191.5 219.36 184.58 161.94 217.07" fill="#ff8522"></polygon><polyline points="232.41 188.72 232.41 191.25 174.78 223.35 163 216.9 163 214.29" fill="#ea6c0f"></polyline><polygon points="163 214.29 174.25 220.78 232.41 188.72 220.42 181.8 163 214.29" fill="#ff8522"></polygon><path d="M109.79,197.63,131,185a3.25,3.25,0,0,0,.11-5.52l-17.56-11.43a5.44,5.44,0,0,0-6,0l-20.87,14a3.25,3.25,0,0,0,.14,5.48l16.61,10A6.17,6.17,0,0,0,109.79,197.63Z" fill="#b24800"></path><path d="M109.79,195.72,131,183.11a3.25,3.25,0,0,0,.11-5.52l-17.56-11.43a5.44,5.44,0,0,0-6,0l-20.87,14a3.25,3.25,0,0,0,.14,5.48l16.61,10A6.17,6.17,0,0,0,109.79,195.72Z" fill="#df5d00"></path><path d="M106.25,145.2,95,180.89s-2.76,9.05,14.17,8.13,14.69-9.32,14.69-9.32L112.55,145.2" fill="#ff8522"></path><path d="M102.07,158.42s2.24,2.31,7.39,2.31c6.44,0,7.13-3.17,7.13-3.17l2.36,7.22s-1.7,4.07-9.49,3.93c-7.05-.12-9.81-2.65-9.81-2.65" fill="#fff"></path><path d="M97.88,172a16.13,16.13,0,0,0,11.42,4.54c8.37-.1,11.52-6.06,11.52-6.06l2.49,7.6s-3.59,5.57-13.92,6.32c-9.74.7-13.92-4.75-13.92-4.75" fill="#fff"></path><path d="M108.69,145.47h-2.42L95,181.15s-2.57,8.44,12.49,8.19C107.81,174.72,108.54,160.1,108.69,145.47Z" fill="#ff8522" opacity="0.15" style="mix-blend-mode: multiply;"></path><ellipse cx="109.47" cy="145.47" rx="3.21" ry="1.84" fill="#ff9f57"></ellipse><polyline points="171.75 191.7 171.75 196.86 177.29 200.1 187 193.88 187 188.49" fill="#fbb03b"></polyline><polygon points="171.75 191.7 177.28 194.93 187 188.49 181.66 185.38 171.75 191.7" fill="#d35046"></polygon><polyline points="227.14 173.72 227.14 178.46 252.55 193.47 296.71 167.73 296.71 162.93" fill="#4154F1"></polyline><g opacity="0.46"><polyline points="227.14 173.72 227.14 178.46 252.55 193.47 296.71 167.73 296.71 162.93" fill="#4154F1"></polyline></g><polygon points="227.14 173.72 252.65 188.37 296.71 162.93 271.3 148.12 227.14 173.72" fill="#4154F1"></polygon><path d="M253.79,169.37h-1l0-97.9c0-4.9,0-4.93.5-4.9l.5.5C253.82,67.22,253.79,169.37,253.79,169.37Z" fill="#4154F1"></path><rect x="267.33" y="63.55" width="1" height="104.68" fill="#4154F1"></rect><rect x="259.59" y="64.15" width="1" height="107.75" fill="#4154F1"></rect><path d="M260.09,156.93l-7.25-4.18,6.15-7.3-6-3.7.53-.85,6.89,4.27,7.16-3.81.47.88-6.64,3.53,6.87,6.12Zm-5.71-4.45,5.7,3.29,6.55-4L260,145.83Z" fill="#4154F1"></path><path d="M260.09,136.3l-7.25-4.18,6.15-7.3-6-3.7.53-.85,6.89,4.27,7.16-3.81.47.88-6.64,3.53,6.87,6.12Zm-5.71-4.45,5.7,3.29,6.55-4L260,125.2Z" fill="#4154F1"></path><path d="M260.09,117.66l-7.25-4.18,6.15-7.3-6-3.7.53-.85,6.89,4.27,7.16-3.81.47.88-6.64,3.53,6.87,6.12Zm-5.71-4.45,5.7,3.29,6.55-4L260,106.56Z" fill="#4154F1"></path><path d="M260.09,100.13l-7.25-4.18,6.15-7.3-6-3.7.53-.85,6.89,4.27,7.16-3.81.47.88L261.43,89l6.87,6.12Zm-5.71-4.45,5.7,3.29,6.55-4L260,89Z" fill="#4154F1"></path><path d="M260.09,81.39l-7.25-4.18,6.15-7.3-4.12-2.55.53-.85,5,3.12,7.16-3.81.47.88-6.64,3.53,6.87,6.12Zm-5.71-4.45,5.7,3.29,6.55-4L260,70.29Z" fill="#4154F1"></path><path d="M178.37,111.58a.64.64,0,0,1-.32-.09l-10-5.75a.64.64,0,0,1-.32-.56V96.4l1.54.85,9.4,5.48a.64.64,0,0,1,.32.56v7.64a.64.64,0,0,1-.64.64Zm-9.6-6.6,9.25,5.34V103.5l-9.26-5.4Zm-.18-.1h0Zm9.6-1.27h0Z" fill="#4154F1"></path><path d="M178.59,111.62l-.5-.87L288.67,47V40.29l-9.94-6.62L183.09,88.75,186,99.48l-18.08-2.26-.17-.73.32-.22L278.77,32.5l10.9,7.26v7.87Zm-8.86-15.18L184.6,98.3l-2.41-9Z" fill="#4154F1"></path><rect x="169.96" y="71.12" width="127.58" height="1" transform="translate(-4.81 125.09) rotate(-29.67)" fill="#4154F1"></rect><polygon points="295.42 40.21 295.42 50.67 311.5 41.19 311.5 30.73 295.42 40.21" fill="#4154F1"></polygon><polygon points="295.42 50.67 289.17 47.34 289.17 36.87 295.42 40.21 295.42 50.67" fill="#4154F1"></polygon><polygon points="295.42 40.21 295.42 50.67 311.5 41.19 311.5 30.73 295.42 40.21" fill="#606060" opacity="0.46"></polygon><polygon points="295.42 50.67 289.17 47.34 289.17 36.87 295.42 40.21 295.42 50.67" fill="#606060" opacity="0.76"></polygon><polygon points="186.84 107.06 185.84 107.06 185.84 100 174.72 93.62 175.22 92.75 186.84 99.42 186.84 107.06" fill="#4154F1"></polygon><polygon points="194.45 102.65 193.45 102.65 193.45 95.59 182.33 89.21 182.83 88.35 194.45 95.01 194.45 102.65" fill="#4154F1"></polygon><polygon points="200.94 98.89 199.94 98.89 199.94 91.83 188.82 85.45 189.32 84.59 200.94 91.25 200.94 98.89" fill="#4154F1"></polygon><polygon points="208.55 94.48 207.55 94.48 207.55 87.42 196.43 81.05 196.93 80.18 208.55 86.84 208.55 94.48" fill="#4154F1"></polygon><polygon points="214.24 90.58 213.24 90.58 213.24 83.52 202.12 77.14 202.62 76.27 214.24 82.94 214.24 90.58" fill="#4154F1"></polygon><polygon points="221.85 86.17 220.85 86.17 220.85 79.11 209.73 72.73 210.22 71.86 221.85 78.53 221.85 86.17" fill="#4154F1"></polygon><polygon points="228.84 82.06 227.84 82.06 227.84 75 216.72 68.62 217.22 67.75 228.84 74.42 228.84 82.06" fill="#4154F1"></polygon><polygon points="236.45 77.65 235.45 77.65 235.45 70.59 224.33 64.21 224.83 63.35 236.45 70.01 236.45 77.65" fill="#4154F1"></polygon><polygon points="243.2 74.3 242.2 74.3 242.2 67.23 231.07 60.86 231.57 59.99 243.2 66.66 243.2 74.3" fill="#4154F1"></polygon><polygon points="250.81 69.89 249.81 69.89 249.81 62.83 238.68 56.45 239.18 55.58 250.81 62.25 250.81 69.89" fill="#4154F1"></polygon><polygon points="257.58 65.83 256.58 65.83 256.58 59.21 245.46 52.83 245.96 51.96 257.58 58.63 257.58 65.83" fill="#4154F1"></polygon><polygon points="265.19 61.86 264.19 61.86 264.19 54.8 253.07 48.42 253.56 47.55 265.19 54.22 265.19 61.86" fill="#4154F1"></polygon><polygon points="200.11 91.55 183.14 89.1 183.28 88.11 198.7 90.34 195.92 81.06 196.88 80.77 200.11 91.55" fill="#4154F1"></polygon><polygon points="213.58 83.24 196.61 80.79 196.75 79.8 212.17 82.03 209.39 72.75 210.35 72.46 213.58 83.24" fill="#4154F1"></polygon><polygon points="228.61 75.2 211.11 72.84 211.24 71.85 227.21 74 224.43 64.71 225.39 64.42 228.61 75.2" fill="#4154F1"></polygon><polygon points="242.56 66.66 225.59 64.2 225.73 63.21 241.15 65.44 238.37 56.16 239.33 55.87 242.56 66.66" fill="#4154F1"></polygon><polygon points="256.84 59.02 239.87 56.56 240.01 55.57 255.43 57.8 252.65 48.52 253.61 48.24 256.84 59.02" fill="#4154F1"></polygon><path d="M159.78,123.46l-9.31-7.15,17.57-19.9,11.26,6.7Zm-7.85-7.29,7.75,6,18-18.8-9.47-5.63Z" fill="#4154F1"></path><rect x="157.95" y="116.02" width="23.81" height="1" transform="translate(-35.9 106.92) rotate(-31.78)" fill="#4154F1"></rect><path d="M176.53,112.38c-.18.11,0,79.31,0,79.31" fill="#4154F1"></path><path d="M176,191.7s0-19.8-.07-39.62c0-39.91,0-39.91.3-40.12l.26.42.49.08c-.13,1.27-.05,52.39,0,79.24Z" fill="#4154F1"></path><path d="M181.74,109.18c-.18.11,0,79.31,0,79.31" fill="#4154F1"></path><path d="M181.24,188.5s0-19.8-.07-39.62c0-39.91,0-39.91.3-40.12l.26.43.49.08c-.13,1.27-.05,52.39,0,79.24Z" fill="#4154F1"></path><polygon points="289.17 36.86 305.67 27.24 311.5 30.72 295.42 40.2 289.17 36.86" fill="#4154F1"></polygon><polygon points="278.87 53.86 277.87 53.86 277.87 46.8 266.74 40.42 267.24 39.55 278.87 46.22 278.87 53.86" fill="#4154F1"></polygon><polygon points="270.51 51.02 253.54 48.56 253.69 47.57 269.11 49.8 266.33 40.52 267.29 40.24 270.51 51.02" fill="#4154F1"></polygon><polygon points="283.87 43.53 267.73 40.25 267.93 39.27 282.18 42.17 278.29 33.28 279.21 32.88 283.87 43.53" fill="#4154F1"></polygon><polygon points="259.93 47.75 259.93 63.42 266.85 67.36 266.85 51.94 259.93 47.75" fill="#4154F1"></polygon><polygon points="266.85 51.94 273.41 48.37 273.41 63.58 266.85 67.36 266.85 51.94" fill="#4154F1"></polygon><g opacity="0.76"><polygon points="259.93 47.75 259.93 63.42 266.85 67.36 266.85 51.94 259.93 47.75" fill="#606060"></polygon></g><g opacity="0.46"><polygon points="266.85 51.94 273.41 48.37 273.41 63.58 266.85 67.36 266.85 51.94" fill="#606060"></polygon></g><polygon points="259.93 47.75 266.52 44.24 273.41 48.37 266.85 51.94 259.93 47.75" fill="#4154F1"></polygon><path d="M272.25,55.25V51.33L268,53.63v3.91C269.43,56.71,270.84,56.09,272.25,55.25Z" fill="#fffef3"></path><path d="M261.27,54.84V50.92l4.24,2.3v3.91C264.1,56.3,262.68,55.68,261.27,54.84Z" fill="#fffef3"></path></g></g></svg>