<svg id="Layer_1" data-name="Layer 1" xmlns="http://www.w3.org/2000/svg" xmlns:xlink="http://www.w3.org/1999/xlink" viewBox="0 0 403.13 315" width="406" height="306" class="illustration styles_illustrationTablet__1DWOa"><defs><linearGradient id="linear-gradient" x1="1630.96" y1="1694.81" x2="1490.75" y2="1836.15" gradientTransform="translate(-1169.63 2025.06) rotate(-99.69)" gradientUnits="userSpaceOnUse"><stop offset="0.01" stop-color="#fff"></stop><stop offset="1" stop-color="#fff" stop-opacity="0"></stop></linearGradient><radialGradient id="radial-gradient" cx="194" cy="92.22" r="87.63" gradientUnits="userSpaceOnUse"><stop offset="0.01" stop-color="#fff"></stop><stop offset="0.66" stop-color="#fff" stop-opacity="0.69"></stop><stop offset="0.67" stop-color="#fff" stop-opacity="0.61"></stop><stop offset="0.68" stop-color="#fff" stop-opacity="0.47"></stop><stop offset="0.7" stop-color="#fff" stop-opacity="0.34"></stop><stop offset="0.72" stop-color="#fff" stop-opacity="0.23"></stop><stop offset="0.75" stop-color="#fff" stop-opacity="0.15"></stop><stop offset="0.78" stop-color="#fff" stop-opacity="0.08"></stop><stop offset="0.81" stop-color="#fff" stop-opacity="0.03"></stop><stop offset="0.86" stop-color="#fff" stop-opacity="0.01"></stop><stop offset="1" stop-color="#fff" stop-opacity="0"></stop></radialGradient><linearGradient id="linear-gradient-2" x1="217.29" y1="108.58" x2="77.07" y2="249.92" gradientTransform="matrix(1, 0, 0, 1, 0, 0)" xlink:href="#linear-gradient"></linearGradient><linearGradient id="linear-gradient-3" x1="219.18" y1="97.42" x2="176.94" y2="6.76" gradientTransform="matrix(1, 0, 0, 1, 0, 0)" xlink:href="#linear-gradient"></linearGradient><linearGradient id="linear-gradient-4" x1="230.89" y1="34.73" x2="237.45" y2="453.05" gradientUnits="userSpaceOnUse"><stop offset="0.01" stop-color="#fff"></stop><stop offset="0.13" stop-color="#fff" stop-opacity="0.69"></stop><stop offset="0.15" stop-color="#fff" stop-opacity="0.61"></stop><stop offset="0.2" stop-color="#fff" stop-opacity="0.47"></stop><stop offset="0.25" stop-color="#fff" stop-opacity="0.34"></stop><stop offset="0.3" stop-color="#fff" stop-opacity="0.23"></stop><stop offset="0.36" stop-color="#fff" stop-opacity="0.15"></stop><stop offset="0.44" stop-color="#fff" stop-opacity="0.08"></stop><stop offset="0.52" stop-color="#fff" stop-opacity="0.03"></stop><stop offset="0.65" stop-color="#fff" stop-opacity="0.01"></stop><stop offset="1" stop-color="#fff" stop-opacity="0"></stop></linearGradient></defs><title>Untitled-6</title><path d="M320.61,74c7.67,14.24,15.47,29.73,21.41,44.63,6,15.15,19,28,31,38.56,13.21,11.7,27.57,22.11,40,34.64s23.06,27.63,26.52,44.93c3.91,19.55-1.78,40-11.51,57.43-3.16,5.66-6.79,11.13-11.53,15.55s-10.62,7.76-16.5,10.71c-15.7,7.85-32.21,13.94-49.64,16.29-18.15,2.44-36.6,1.36-54.72-.88-24.36-3-48.49-8.11-73-9.56-17.67-1-35.4-.18-53.06,1.14-18.88,1.42-38.12,3.33-56.54-1.06-24.18-5.78-45.13-22.5-57.94-43.81C44,264,31.4,228.65,41.17,207.83c10.41-22.19,38.6-37.24,57.07-51.77,7.49-5.89,14.89-12.36,19.14-20.88,4.74-9.49,5.09-20.47,7.06-30.89,6.39-33.78,31.95-63.24,64.49-74.33,45.77-15.59,101-5.24,128,37.6C318.2,69.65,319.43,71.79,320.61,74Z" transform="translate(-37.66 -23.1)" fill="#4154F1" opacity="0.18" style="isolation: isolate;"></path><path d="M262.61,152.62l88.62,111.7,47.84-55.59L278.73,134.38S265.28,141.88,262.61,152.62Z" transform="translate(-37.66 -23.1)" fill="url(#linear-gradient)"></path><circle cx="194" cy="92.22" r="87.63" fill="url(#radial-gradient)"></circle><path d="M191,140.7,66,209.25l46.74,56.52,93.54-106.11S201.16,145.14,191,140.7Z" transform="translate(-37.66 -23.1)" fill="url(#linear-gradient-2)"></path><path d="M170.91,38.37l25.8,38.15,23.47-13.15-13.81-38S176.7,29.46,170.91,38.37Z" transform="translate(-37.66 -23.1)" fill="url(#linear-gradient-3)"></path><path d="M340.76,293.56c2.24,1.22,4.55,2.49,6.07,4.54a12.53,12.53,0,0,1,2.11,7.09,21.32,21.32,0,0,1-5.6,14.87,3.16,3.16,0,0,1-1.8,1.16,2.68,2.68,0,0,1-1.55-.41c-2.56-1.39-3.92-4.24-4.83-7s-1.58-5.69-3.35-8C328.48,301.46,316,297.31,322,290,326.93,283.82,336,291,340.76,293.56Z" transform="translate(-37.66 -23.1)" fill="#ffbbab"></path><path d="M301.25,226A176.36,176.36,0,0,0,291,244.9c-5.29,11.4-5.35,21.07,3.37,30.59,8,8.71,16.06,17.51,25.9,24,2.31,1.54,5,3,7.73,2.46,4-.79,6-5.74,5.2-9.76s-3.68-7.28-6.31-10.43c-4.48-5.34-16.29-16.2-13.84-23.07,3.28-9.16,12.86-16,17.69-24.39a3.74,3.74,0,0,0,.68-2.87c-.25-.76,2.61-6.53,2-7-6.25-4.46-16.58-2.9-23.72-5.73a4.32,4.32,0,0,0-2.27-.44,4.42,4.42,0,0,0-2.57,2.18C303.62,222.31,302.42,224.15,301.25,226Z" transform="translate(-37.66 -23.1)" fill="#282328"></path><path d="M349.24,296.32s3.48.26,4.45,2.53,2.89,21.7-9.48,28-1.71-17.72-1.71-17.72Z" transform="translate(-37.66 -23.1)" fill="#4154F1"></path><path d="M342.23,293.59a2.37,2.37,0,0,0-.63,3c1,1.83,1.32,6.49-1.07,9.36s-6.79,2.33-7.61,3.94,2.28,13.9,5.2,15.94,7.43-1.22,10.15-6,4.79-17.47,3.26-20.84S344.41,293.26,342.23,293.59Z" transform="translate(-37.66 -23.1)" fill="#fff"></path><path d="M283.84,298.32c.28,2.53.54,5.16-.28,7.57a12.42,12.42,0,0,1-4.62,5.77,21.35,21.35,0,0,1-15.42,3.87,3.19,3.19,0,0,1-2-.82,2.7,2.7,0,0,1-.55-1.51c-.31-2.89,1.26-5.64,3-8s3.79-4.54,4.68-7.31c1.66-5.2-2-17.83,7.4-17.12C284,281.4,283.24,292.89,283.84,298.32Z" transform="translate(-37.66 -23.1)" fill="#ffbbab"></path><path d="M316.86,227.38a174,174,0,0,0-21.35,2.34c-12.38,2.14-20.36,7.6-23.22,20.19-2.62,11.51-5.25,23.17-5,35,.06,2.78.39,5.82,2.38,7.75,2.95,2.87,8.17,1.7,11-1.28s3.89-7.16,5-11.12c1.85-6.72,4-22.62,11.09-24.51,12-3.22,24.42,4.12,36.09-.62A53.18,53.18,0,0,0,344.57,249a22,22,0,0,0,8-10.35,23.77,23.77,0,0,0,1.1-6.86,27.73,27.73,0,0,0-.23-5.76c-.4-2.19-.78-1.93-3-1.88-3.77.08-7.52.42-11.26.85C331.76,225.79,324.36,227,316.86,227.38Z" transform="translate(-37.66 -23.1)" fill="#473f47"></path><path d="M286.4,306.86s1.77,3,.45,5.1-16.18,14.73-28.44,8.16S272,308.64,272,308.64Z" transform="translate(-37.66 -23.1)" fill="#4154F1"></path><path d="M284.66,299.54a2.36,2.36,0,0,0-2.84,1.2c-1,1.84-4.59,4.78-8.31,4.45s-5.78-4.25-7.57-4S255.81,311,255.8,314.53s5.23,5.41,10.67,5,17.09-6,19-9.19S286.17,301.14,284.66,299.54Z" transform="translate(-37.66 -23.1)" fill="#fff"></path><path d="M286.52,182.56c.17,2.91,1.11,5.45,3.64,6.29a4.11,4.11,0,0,0,.65.18c4.65.93,10.75-2.61,15-5.7a58.36,58.36,0,0,0,5.08-4.13V148.07l-22.62,23.16S286.2,177.45,286.52,182.56Z" transform="translate(-37.66 -23.1)" fill="#fff"></path><path d="M305.64,183.23c0,1.45-.18,2.93-.19,4.39,0,8,1.87,16.34-.53,24.22-.54,1.76-1.29,3.64-.67,5.38a6.7,6.7,0,0,0,3.37,3.24c7.08,3.87,15.28,5.06,23.27,6.18,6,.85,14.55,2.63,20.11-.61,2.37-1.38,3.17-3.95,3.93-6.51,2.41-8.16,3.12-16.93,3.75-25.37.08-1.11.16-2.23.23-3.34q.69-11.55.47-23.11c-.11-5.59-.55-11.63-4.2-15.85-4.86-5.62-14.25-9.34-21.38-10.65a24.06,24.06,0,0,0-7-.39,29.84,29.84,0,0,0-9.51,3.23c-3.54,1.75-6.69,3.23-8.43,6.73a47.78,47.78,0,0,0-3.95,12.75,45.58,45.58,0,0,0-.23,12.51c.21,2,.74,4.07.94,6.09C305.62,182.49,305.64,182.86,305.64,183.23Z" transform="translate(-37.66 -23.1)" fill="#fff"></path><path d="M338.45,228.76c2.33.69,7.71-1.44,9.5-1.76,1.07-.19,2-.72,3.1-1,5.32-1.33,5.95-16.29,6.48-20.31,1.38-10.65,3.49-21.66,3.62-32.34.05-4.11-.06-8.31-1.41-12.19s-4.11-7.48-8-8.87a4.09,4.09,0,0,0-2.36-.26c-3.25.83-3.92,6.18-4.48,8.78-.84,4-2.26,8.1-5.72,10.55-8.41,6-22.6,1.55-31.69.07a4.19,4.19,0,0,0-2.46.09,3.05,3.05,0,0,0-1.3,3.48,17.57,17.57,0,0,0,1.69,3.63c2.18,4.37,1.6,9.58,2.83,14.31,1.48,5.69,5.55,10.4,10.25,13.93s10.06,6,15.25,8.8a10.64,10.64,0,0,1,3.2,2.25,7.16,7.16,0,0,1,1.55,4.82c0,1.12-1.42,4.52-1,5.31A1.49,1.49,0,0,0,338.45,228.76Z" transform="translate(-37.66 -23.1)" fill="#020202" opacity="0.1"></path><path d="M322.08,134.53a5.18,5.18,0,0,0,3.28,1.64,17.56,17.56,0,0,0,3.16.06l.59,0a.63.63,0,0,1,.43.08.67.67,0,0,1,.19.47,35.22,35.22,0,0,1,.12,6.33h0c0,.38-.06.76-.1,1.14a2.18,2.18,0,0,0,.1,1.19,2,2,0,0,0,1.28.84,9.34,9.34,0,0,0,2.86.49c2.08,0,4-1.05,5.82-2.05a59,59,0,0,1,.57-10.79c.67-4.61,1.88-9.23,1.38-13.86a9,9,0,0,0-1.9-5c-1.67-1.87-4.36-2.48-6.87-2.47a17.38,17.38,0,0,0-9.43,2.58c-1,.71-1.16,1.61-1.4,2.79-.36,1.82-.65,3.66-.85,5.5q-.35,3.15-.39,6.33C320.9,131.42,321,133.25,322.08,134.53Z" transform="translate(-37.66 -23.1)" fill="#ffbbab"></path><path d="M325.74,116.21c2.36.4,4.95,0,7.18.9,3.12,1.27,4.45,5.32,3.41,8.53.9.32,1.06-1.3,1.76-2s2.27.22,2.38,1.35a6.91,6.91,0,0,1-1,3.21,9.51,9.51,0,0,0-.42,6.31c.14.49.5,1.08,1,.95s.84-1,1.14-1.34a14.92,14.92,0,0,1,1.58-1.6c1.1-1,2.3-1.81,3.43-2.75,2-1.66,3.84-3.93,3.72-6.53a5.71,5.71,0,0,0-1-3,6.59,6.59,0,0,0-2-1.88c-.31-.2-.68-.42-.75-.79a1.61,1.61,0,0,1,.08-.61c.69-2.63-.78-5.46-3-7.11a17.54,17.54,0,0,0-7.58-2.81c-1.74-.31-3.49-.55-5.24-.76a11.85,11.85,0,0,1-4.22-1,11.86,11.86,0,0,1,1.4-2.69,13.45,13.45,0,0,0-3.53,1.62,6,6,0,0,1,.48-1.76c-1.91.66-3.93,1.38-5.19,3a6.22,6.22,0,0,0-.18,7c1.36,2.13,3.49,3,5.83,3.56Q325.42,116.17,325.74,116.21Z" transform="translate(-37.66 -23.1)" fill="#fc682d"></path><path d="M328.52,136.23l.59,0a.63.63,0,0,1,.43.08.67.67,0,0,1,.19.47,35.22,35.22,0,0,1,.12,6.33h0s6-1.53,5.84-9a35.53,35.53,0,0,1-7.13,2.11Z" transform="translate(-37.66 -23.1)" fill="#e0a194"></path><path d="M255.7,157c1.28.81,3,1.05,3.83,2.34,1,1.51,0,3.44-.21,5.21a7.5,7.5,0,0,0,1.54,5.46,8.69,8.69,0,0,0,1.24,1.33,11.58,11.58,0,0,0,7,2.59s1.41-5.66,1.37-6.24c-.17-2-1.54-3.82-1.76-5.89a65,65,0,0,0-.6-6.56,13.81,13.81,0,0,0-7.75-9.65c-.49-.22-1.19-.35-1.46.12a1,1,0,0,0-.07.64v0c.3,2.27,1.78,4.19,3.21,6a16.58,16.58,0,0,0-4.12-1.67c-.64-.17-1.59-.07-1.6.59a1.16,1.16,0,0,0,.49.78l3.86,3.46a12,12,0,0,0-4.86-.53,1.27,1.27,0,0,0-.76.26C254.57,155.75,255.09,156.62,255.7,157Z" transform="translate(-37.66 -23.1)" fill="#ffbbab"></path><path d="M255.7,157c1.28.81,3,1.05,3.83,2.34,1,1.51,0,3.44-.21,5.21a7.5,7.5,0,0,0,1.54,5.46,7.27,7.27,0,0,0,1.44.67,1.64,1.64,0,0,0,1.11.09,1.43,1.43,0,0,0,.67-1.7,11,11,0,0,0-.86-1.8,4.43,4.43,0,0,1-.17-3.26,7,7,0,0,0,.83-2.66,4,4,0,0,0-.65-1.62l-1.17-2a2.46,2.46,0,0,1-.4-1,.85.85,0,0,1,.43-.88,1.19,1.19,0,0,1,1.09.29c.65.47,2.2,2.46,2,.61a11,11,0,0,0-1.35-3.55,39.77,39.77,0,0,0-4.39-6.31,4.66,4.66,0,0,0-.58-.6v0c.3,2.27,1.78,4.19,3.21,6a16.58,16.58,0,0,0-4.12-1.67c-.64-.17-1.59-.07-1.6.59a1.16,1.16,0,0,0,.49.78l3.86,3.46a12,12,0,0,0-4.86-.53,1.27,1.27,0,0,0-.76.26C254.57,155.75,255.09,156.62,255.7,157Z" transform="translate(-37.66 -23.1)" fill="#e0a194"></path><path d="M287.67,155.11c1.46.81,3.45,1,4.36,2.34,1.09,1.51,0,3.44-.23,5.21a6.86,6.86,0,0,0,1.75,5.46,9.36,9.36,0,0,0,1.41,1.33,14.35,14.35,0,0,0,8,2.59s1.61-5.66,1.56-6.24c-.19-2-1.75-3.82-2-5.89a59.76,59.76,0,0,0-.69-6.56A14.33,14.33,0,0,0,293,143.7c-.56-.22-1.36-.35-1.67.12a.94.94,0,0,0-.08.64v0c.34,2.27,2,4.19,3.66,6a20.36,20.36,0,0,0-4.7-1.67c-.72-.17-1.81-.07-1.82.59,0,.32.3.57.56.78l4.4,3.46a15.43,15.43,0,0,0-5.54-.53,1.59,1.59,0,0,0-.87.26C286.38,153.86,287,154.73,287.67,155.11Z" transform="translate(-37.66 -23.1)" fill="#ffbbab"></path><path d="M287.67,155.11c1.46.81,3.45,1,4.36,2.34,1.09,1.51,0,3.44-.23,5.21a6.86,6.86,0,0,0,1.75,5.46,8.81,8.81,0,0,0,1.64.67,2.13,2.13,0,0,0,1.27.09,1.37,1.37,0,0,0,.76-1.7,10.22,10.22,0,0,0-1-1.8,4,4,0,0,1-.19-3.26c.35-.89,1-1.73.94-2.66a3.66,3.66,0,0,0-.74-1.62l-1.33-2a2.31,2.31,0,0,1-.46-1A.83.83,0,0,1,295,154a1.52,1.52,0,0,1,1.25.29c.74.47,2.5,2.46,2.29.61a10.34,10.34,0,0,0-1.54-3.55,40,40,0,0,0-5-6.31,4.82,4.82,0,0,0-.66-.6v0c.34,2.27,2,4.19,3.66,6a20.36,20.36,0,0,0-4.7-1.67c-.72-.17-1.81-.07-1.82.59,0,.32.3.57.56.78l4.4,3.46a15.43,15.43,0,0,0-5.54-.53,1.59,1.59,0,0,0-.87.26C286.38,153.86,287,154.73,287.67,155.11Z" transform="translate(-37.66 -23.1)" fill="#e0a194"></path><path d="M267.66,174.52a44.48,44.48,0,0,0,10.86,10.82A21.68,21.68,0,0,0,288.73,189a3.63,3.63,0,0,0,1.43-.16,3.84,3.84,0,0,0,2-1.36,11.35,11.35,0,0,0,2.62-6.45c.25-6.2-6.47-9.81-6.47-9.81s-15.3-4.88-17.12-4.08c-1,.43-1.94,2.58-2.6,4.45C268,173.16,267.66,174.52,267.66,174.52Z" transform="translate(-37.66 -23.1)" fill="#fff"></path><rect x="332.71" y="151" width="22.97" height="54.09" rx="11.49" transform="translate(571.41 437.82) rotate(-160.47)" fill="#fff"></rect><path d="M332.2,176l-25.31-13.8-9.76,11.07s31.87,32.14,41.28,30.87,5.43-11.24,5.43-11.24S347.39,182.22,332.2,176Z" transform="translate(-37.66 -23.1)" fill="#fff"></path><path d="M267.66,174.52a44.48,44.48,0,0,0,10.86,10.82A21.68,21.68,0,0,0,288.73,189a3.63,3.63,0,0,0,1.43-.16,4.11,4.11,0,0,0,.65.18c4.65.93,10.75-2.61,15-5.7l0-.1-1.44-9.3a36.66,36.66,0,0,1-9.59,7.11,13.72,13.72,0,0,1-8.22,1.52,8.52,8.52,0,0,1-2.21-.67,72.29,72.29,0,0,1-15.76-10.29C268,173.16,267.66,174.52,267.66,174.52Z" transform="translate(-37.66 -23.1)" fill="#020202" opacity="0.1"></path><g id="I4ccdY"><path d="M260.39,188.7c3.7,4.53,3.73,9.1-.09,13.71a9.69,9.69,0,0,1,2.82,7.33,9.45,9.45,0,0,1-9.59,9c-1.92,0-3.84,0-5.85,0-.18.57-.36,1-.5,1.54a15.5,15.5,0,0,1-29.86.07c-.35-1.22-.82-1.72-2.12-1.63a35.88,35.88,0,0,1-5.08-.05,8.94,8.94,0,0,1-8-5.67,9.08,9.08,0,0,1,1.32-9.72c.18-.23.35-.47.52-.71a1.13,1.13,0,0,0,.07-.29c-3.69-4.5-3.69-9.13.06-13.79a9.47,9.47,0,0,1-2.4-9.4,8.16,8.16,0,0,1,4.92-5.8c1.38-.53,1.31-1.39,1.17-2.45a38.57,38.57,0,0,0-10-22c-4.91-5.26-9.3-10.81-11.94-17.57-.72-1.85-1.22-3.78-1.95-5.62-.2-.51-.86-1.18-1.31-1.19-7.31-.07-14.61-.05-22.07-.05-.05.5-.15.94-.15,1.38,0,5.2,0,10.41,0,15.61a1.71,1.71,0,0,0,1.25,1.92,10.32,10.32,0,0,1,6.46,11.72,10.58,10.58,0,0,1-20.78-.36,10.27,10.27,0,0,1,6.52-11.35,1.82,1.82,0,0,0,1.3-2.08c0-6,0-12.05,0-18.08,0-3.6.72-4.33,4.26-4.33h22.86c-1.86-16.54,2.84-30.72,14.49-42.37A47.76,47.76,0,0,1,230,62.13c15.44-.46,28.51,5.18,38.81,16.66s14.31,24.94,12.3,40.28H302.9c0-.61.09-1.12.09-1.63,0-5.09,0-10.18,0-15.26a1.69,1.69,0,0,0-1.21-2,10.35,10.35,0,0,1-6.5-11.7,10.57,10.57,0,0,1,20.78.27,10.44,10.44,0,0,1-6.6,11.5c-.38.15-.75.32-1.19.51v19.84c0,3.14-.67,3.81-3.79,3.81-7.36,0-14.73,0-22.1,0a1.74,1.74,0,0,0-2,1.54A47.54,47.54,0,0,1,269,145.88c-4.88,5.18-8.94,10.82-10.78,17.79a62,62,0,0,0-1.32,7.92,2,2,0,0,0,.87,1.59c5.83,3.4,7.08,9.76,2.9,15A5.1,5.1,0,0,0,260.39,188.7Zm-28.54-3c7,0,13.9,0,20.86,0a4,4,0,0,0,3.65-1.63,4.19,4.19,0,0,0,.53-4.46,4.4,4.4,0,0,0-4.35-2.38c-13.78,0-27.57,0-41.36,0-3.05,0-4.85,1.67-4.81,4.34s1.77,4.11,4.8,4.11Zm.06,5.31H227.7c-5.55,0-11.11,0-16.66,0-3,0-5,2.18-4.63,4.9.3,2.23,2.05,3.55,4.86,3.55q12.9,0,25.78,0c5.09,0,10.18,0,15.26,0,2.51,0,4.19-1.23,4.62-3.22A4.2,4.2,0,0,0,252.6,191C245.7,191,238.81,191,231.91,191Zm-.06,13.77H210.48a3.79,3.79,0,0,0-3.79,2.32,3.61,3.61,0,0,0,.64,4.24,5.61,5.61,0,0,0,3.34,1.52c14.13.1,28.27.07,42.4.05a5,5,0,0,0,1.7-.34,3.88,3.88,0,0,0,2.52-4.16,4.06,4.06,0,0,0-3.54-3.58,15.34,15.34,0,0,0-1.92-.06Zm-9.72,13.51c.65,4.4,5.12,7.79,10,7.6,4.6-.18,8.87-3.74,9.1-7.6ZM300.42,90.64a5.37,5.37,0,0,0,5.48,5.21A5.27,5.27,0,0,0,311,90.62a5.37,5.37,0,0,0-5.39-5.31A5.3,5.3,0,0,0,300.42,90.64ZM157.74,158a5.19,5.19,0,0,0,5.23-5.2,5.65,5.65,0,0,0-5.43-5.34,5.41,5.41,0,0,0-5.12,5.4A5.28,5.28,0,0,0,157.74,158Z" transform="translate(-37.66 -23.1)" fill="#4154F1"></path></g><path d="M250.92,171c.48-2.79.79-5.4,1.38-8,2-8.55,6.58-15.61,12.57-21.9a42.32,42.32,0,0,0,11.72-26,44.73,44.73,0,0,0-51.68-48.34c-27.41,4.33-44.43,33.5-34.78,59.55,2.5,6.77,6.64,12.39,11.48,17.64a43.5,43.5,0,0,1,11,21.37c.37,1.87.56,3.77.84,5.66Z" transform="translate(-37.66 -23.1)" fill="url(#linear-gradient-4)"></path><path d="M241.62,137.41c-.56,2.53-1,4.67-1.5,6.82-.58,2.73-1.08,3.16-3.89,3.16-3.51,0-7,0-10.52,0-2.63,0-3.24-.51-3.75-3.12-.48-2.45-1-4.9-1.48-7.66l-6.2,4.09c-1.88,1.24-2.92,1.16-4.49-.39-2.57-2.55-5.14-5.11-7.68-7.69-1.58-1.59-1.67-2.64-.45-4.49,1.41-2.14,2.84-4.26,4.39-6.59l-6.58-1.65c-2.4-.6-2.88-1.2-2.89-3.62,0-3.74,0-7.48,0-11.22a2.84,2.84,0,0,1,2.55-3.19c2.56-.53,5.11-1.11,8-1.75l-4-5.9c-1.38-2-1.29-3,.43-4.76Q207.24,85.71,211,82c1.72-1.7,2.75-1.79,4.77-.45l6.43,4.27c.51-2.47,1-4.74,1.46-7,.45-2.12,1.18-2.72,3.38-2.73q5.78,0,11.57,0c2.09,0,2.82.61,3.27,2.64.57,2.55,1.13,5.1,1.74,7.9,2.13-1.44,4-2.75,6-4s3-1.25,4.62.37q3.79,3.77,7.56,7.57c1.63,1.64,1.73,2.74.48,4.64-1.44,2.18-2.89,4.35-4.48,6.74l7.22,1.54c2,.44,2.64,1.13,2.65,3.25q0,5.7,0,11.4c0,2.2-.61,2.85-2.8,3.29l-8,1.59,4,6.07c1.37,2.09,1.29,3-.46,4.75-2.39,2.41-4.79,4.8-7.19,7.2-2,2-2.87,2.09-5.18.58Zm-40.33-30.34c0,2.79,0,5.48.05,8.16a1.76,1.76,0,0,0,1.09,1.17c1.58.41,3.21.62,4.81.94a4.89,4.89,0,0,1,3.19,7.81c-.36.54-.72,1.07-1.07,1.61-2.5,3.75-2.5,3.75.65,6.9,2.67,2.66,2.75,2.77,5.83.6,2.36-1.67,4.54-2.61,7.33-.89,1.17.73,2.06,1.39,2.32,2.81.35,1.89.78,3.77,1.26,5.64.11.4.55,1,.86,1,2.49.09,5,0,7.51,0,.41-2,.78-3.87,1.15-5.69a5.42,5.42,0,0,1,7.92-3.38c1.81,1.16,3.61,2.34,5.67,3.67,1-1.16,2-2.28,3-3.31,2.59-2.63,2.73-2.71.58-5.69-1.75-2.43-2.61-4.67-.89-7.49a4,4,0,0,1,2.68-2.24c1.94-.39,3.89-.78,5.81-1.29a1.58,1.58,0,0,0,1-1.08c.09-2.38.05-4.77.05-7.27-2.12-.4-4.13-.77-6.12-1.17a5.18,5.18,0,0,1-3.22-7.32c1.05-1.75,2.16-3.48,3.32-5.16.55-.8.63-1.35-.17-2.07-1.38-1.25-2.7-2.59-4-4-.68-.74-1.22-.88-2.07-.26-1.26.94-2.62,1.75-3.95,2.61a5,5,0,0,1-7.58-3.31c-.45-2.26-.93-4.52-1.38-6.71h-7.92c-.27,1.18-.52,2.25-.76,3.33s-.47,2.29-.74,3.42a4.74,4.74,0,0,1-6.93,2.81c-2.11-1.35-4.19-2.73-6.52-4.24l-4.5,4.74L208.48,93l3.36,5.17a5,5,0,0,1-3.09,7.36Z" transform="translate(-37.66 -23.1)" fill="#fff"></path><path d="M249.63,112.11A17.94,17.94,0,1,1,231.8,94,18,18,0,0,1,249.63,112.11ZM219,111.6a12.72,12.72,0,0,0,12.56,12.86,12.87,12.87,0,0,0,12.75-12.56,12.63,12.63,0,0,0-12.56-12.83A12.82,12.82,0,0,0,219,111.6Z" transform="translate(-37.66 -23.1)" fill="#fff"></path></svg>